# xmcd
#
# Track frame offsets:
#	150
#	10417
#	21490
#	32954
#	42790
#	54335
#	65688
#	79108
#	89743
#	100666
#
# Disc length: 1484 seconds
#
# Revision: 0
# Processed by: cddbd v1.4b41PL1 Copyright (c) Steve Scherf et al.
# Submitted via: audiograbber 1.80
#
DISCID=8005ca0a
DTITLE=Various Artist - Grand Ole Country Collection Disc 2
DYEAR=1900
DGENRE=
TTITLE0=Domino
TTITLE1=Double Talk Baby
TTITLE2=Thanks Alot
TTITLE3=Gentle On My Mind
TTITLE4=Let The Teardrops Fall
TTITLE5=One Is A Lonely Number
TTITLE6=Mexicali Rose
TTITLE7=Please Help Me I'm Falling
TTITLE8=You're Still Mine
TTITLE9=I'm So Lonesome I Could Cry
EXTD=
EXTT0=
EXTT1=
EXTT2=
EXTT3=
EXTT4=
EXTT5=
EXTT6=
EXTT7=
EXTT8=
EXTT9=
PLAYORDER=
